<svg version="1.1" id="Layer_1" xmlns="http://www.w3.org/2000/svg" xmlns:xlink="http://www.w3.org/1999/xlink" x="0px" y="0px"
	 width="100%" viewBox="0 0 348 238" enable-background="new 0 0 348 238" xml:space="preserve">
<path fill="#FEFEFE" opacity="1.000000" stroke="none" 
	d="
M212.000000,239.000000 
	C141.333328,239.000000 71.166664,239.000000 1.000000,239.000000 
	C1.000000,159.666672 1.000000,80.333336 1.000000,1.000000 
	C117.000000,1.000000 233.000000,1.000000 349.000000,1.000000 
	C349.000000,80.333336 349.000000,159.666672 349.000000,239.000000 
	C303.500000,239.000000 258.000000,239.000000 212.000000,239.000000 
M75.780785,210.514740 
	C74.861526,210.086700 73.942268,209.658661 73.023003,209.230637 
	C73.063255,209.808899 73.103508,210.387161 72.587646,210.989349 
	C71.941460,211.859802 71.295273,212.730270 70.649086,213.600739 
	C70.849068,213.780701 71.049057,213.960663 71.249039,214.140640 
	C72.234131,213.412811 73.219231,212.684998 74.564873,212.531113 
	C74.827354,213.026428 75.089836,213.521729 75.352325,214.017044 
	C75.564072,213.946884 75.775826,213.876709 75.987572,213.806549 
	C75.911858,212.923843 75.836136,212.041153 75.780785,210.514740 
M120.062248,176.847885 
	C121.040955,176.428284 122.019661,176.008667 123.623474,176.446228 
	C123.471420,177.087601 123.351036,177.738480 123.162148,178.368820 
	C121.947914,182.420929 120.738747,186.723648 124.835045,189.691513 
	C128.968735,192.686478 133.765320,192.117279 137.899307,189.650833 
	C140.591644,188.044510 142.621170,185.327255 144.988129,183.833878 
	C145.056427,184.554794 145.124725,185.275696 145.298172,186.664993 
	C150.520996,192.161713 156.399872,193.169769 162.123154,189.280624 
	C167.058380,185.927017 169.690857,181.011002 168.672119,175.170685 
	C168.287186,172.963882 165.592407,170.129517 163.387695,169.473938 
	C157.913925,167.846207 152.917465,169.611771 149.113800,174.149979 
	C148.164459,175.282654 147.052963,176.279404 145.621994,177.741104 
	C144.318573,170.750473 142.260864,168.478424 136.640640,169.166580 
	C133.096176,169.600586 129.738800,171.764053 126.367294,173.304489 
	C125.116325,173.876068 124.064545,174.883591 123.326782,174.807938 
	C123.946037,172.605728 125.277580,169.798660 121.500458,169.540894 
	C116.259842,169.183273 110.976540,169.450989 106.623764,169.450989 
	C104.462547,177.081818 102.524223,183.925613 100.612770,190.674561 
	C103.733170,190.674561 107.442673,190.674561 110.554390,190.674561 
	C110.794357,187.869019 111.000961,185.453522 111.315086,181.780869 
	C115.669838,186.914886 117.372742,185.207886 118.188255,180.999268 
	C118.438225,179.709229 118.627068,178.407364 119.073624,176.941589 
	C119.073624,176.941589 119.209908,176.690826 120.062248,176.847885 
M105.955452,69.283447 
	C108.479263,73.268654 110.118568,78.831627 113.738770,80.861145 
	C118.886261,83.746895 125.489761,84.035446 132.451050,85.662682 
	C133.490112,92.093163 134.774155,100.039734 136.071152,108.066437 
	C142.704941,106.308754 148.822861,104.843117 154.805908,102.950996 
	C155.814041,102.632179 156.768692,100.502533 156.846313,99.157524 
	C157.258759,92.009903 157.904449,84.809258 157.406906,77.701340 
	C157.122833,73.643379 154.855240,69.711830 153.401978,65.752274 
	C152.337814,62.852913 150.356384,60.051865 150.165787,57.117245 
	C149.691711,49.817829 149.954697,42.466381 150.053848,35.137615 
	C150.072281,33.775349 150.707855,32.421429 151.058609,31.063652 
	C151.751953,31.146135 152.445312,31.228619 153.138657,31.311102 
	C153.138657,38.728336 153.138657,46.145569 153.138657,53.562801 
	C153.648315,53.539768 154.157990,53.516735 154.667648,53.493702 
	C155.905746,46.177444 153.994308,38.503704 155.764755,31.247869 
	C156.578644,31.277424 157.392532,31.306980 158.206421,31.336535 
	C158.206421,38.741840 158.206421,46.147148 158.206421,53.552456 
	C158.989624,53.526466 159.772827,53.500473 160.556030,53.474480 
	C160.556030,46.042664 160.556030,38.610847 160.556030,31.179031 
	C161.337570,31.167307 162.119095,31.155582 162.900635,31.143858 
	C162.900635,38.601543 162.900635,46.059231 162.900635,53.516914 
	C163.761703,53.509930 164.622757,53.502945 165.483826,53.495960 
	C165.483826,46.073349 165.483826,38.650742 165.483826,31.228132 
	C166.334061,31.240376 167.184311,31.252619 168.034546,31.264864 
	C168.034546,35.776451 168.047913,40.288090 168.031677,44.799618 
	C168.000900,53.354603 169.464874,62.246140 162.451874,69.230179 
	C161.899506,69.780258 161.434692,70.714211 161.429611,71.473114 
	C161.362244,81.493927 161.384720,91.515358 161.384720,101.321930 
	C170.059433,101.321930 178.146469,101.321930 187.117599,101.321930 
	C187.117599,95.240150 186.822250,89.103073 187.191620,83.006271 
	C187.663635,75.215019 186.104004,68.371399 181.293350,61.939148 
	C176.114716,55.014870 176.839706,42.177067 181.918030,35.498764 
	C186.507675,29.463083 192.802979,29.567757 196.149246,36.353500 
	C200.554367,45.286480 201.154770,54.657417 195.407242,63.354050 
	C191.751663,68.885338 190.068436,74.724533 190.293869,81.228973 
	C190.438095,85.390488 190.684998,89.548622 190.811981,93.710526 
	C191.077377,102.409012 191.076263,102.338013 199.296692,104.514656 
	C202.340805,105.320671 205.272522,106.551003 208.255692,107.587280 
	C210.652420,108.419823 212.243942,108.188347 213.065063,105.225296 
	C214.748352,99.150978 216.615234,93.108452 218.838272,87.215714 
	C219.421036,85.670944 221.399887,84.172615 223.061920,83.608406 
	C227.440704,82.121948 232.188919,81.621758 236.431274,79.863358 
	C240.891022,78.014832 243.804504,74.593147 244.092529,69.170731 
	C244.428482,62.846031 243.141907,57.390751 237.280518,54.265282 
	C232.654236,51.798405 227.655136,50.030708 222.344162,47.747200 
	C223.043289,52.370438 223.634140,56.277641 224.224976,60.184841 
	C222.368698,58.459652 221.470642,56.546005 220.773254,54.561832 
	C216.805588,43.273174 209.602005,34.163017 201.188904,25.973904 
	C196.260376,21.176592 190.635468,16.741558 183.534454,16.331060 
	C160.736633,15.013163 139.405457,20.230524 120.651085,33.431145 
	C108.805077,41.769180 102.633530,53.334995 105.955452,69.283447 
M199.211884,139.861542 
	C202.026886,136.431320 204.841873,133.001083 207.656876,129.570847 
	C207.263962,129.143906 206.871063,128.716949 206.478149,128.289993 
	C201.797104,132.843613 196.705322,132.465347 191.394836,129.998642 
	C190.197662,129.442566 188.833862,128.654572 187.635757,128.785812 
	C179.025925,129.728836 170.253616,128.123978 161.888992,129.111450 
	C150.945648,130.403336 151.086884,131.599762 142.301498,129.229416 
	C142.822403,130.189499 143.262543,130.993698 143.696304,131.801315 
	C148.364120,140.492310 154.714249,146.066986 165.661346,137.975220 
	C166.194336,137.581253 166.777634,137.255051 167.339493,136.900436 
	C172.141495,133.869690 176.984146,133.692093 181.893295,136.658493 
	C183.883102,137.860855 185.966431,138.917419 187.900406,140.201202 
	C191.484634,142.580429 195.000214,142.679520 199.211884,139.861542 
M168.737061,188.014908 
	C168.215683,188.753922 167.694321,189.492920 166.721725,190.871506 
	C172.418777,190.871506 177.380753,191.303055 182.236298,190.768341 
	C189.175079,190.004211 194.440781,182.921402 193.043839,176.000702 
	C192.591888,173.761688 190.059433,170.746201 187.981537,170.274170 
	C183.266937,169.203125 178.243546,169.491440 174.047882,169.264984 
	C172.223892,175.896118 170.655563,181.597748 168.737061,188.014908 
M224.444443,177.145187 
	C227.913269,177.579971 229.344269,175.471161 229.471619,172.547913 
	C229.514847,171.555359 228.081833,169.647400 227.251175,169.606003 
	C221.862427,169.337265 216.453751,169.468155 212.154297,169.468155 
	C209.947418,177.151184 208.021347,183.856628 205.959320,191.035355 
	C210.314362,191.035355 215.214188,190.969879 220.111023,191.062637 
	C222.607910,191.109924 225.077484,191.000351 225.338531,187.926559 
	C225.497498,186.054825 224.752045,184.106262 224.412857,182.192215 
	C224.027390,182.238220 223.641922,182.284225 223.256454,182.330231 
	C223.528976,180.862961 223.801514,179.395676 224.444443,177.145187 
M247.901062,185.196945 
	C249.273712,178.605911 241.175583,178.412964 240.129547,173.166504 
	C242.358536,173.699142 243.941284,174.996033 245.686798,176.013718 
	C246.562439,176.524231 248.541199,176.914810 248.645920,176.697372 
	C249.552780,174.814316 250.228149,172.800262 250.720673,170.764313 
	C250.776016,170.535568 249.298920,169.634415 248.482162,169.553650 
	C246.151627,169.323196 243.787445,169.450760 241.450531,169.262909 
	C237.313507,168.930389 233.734131,169.848694 231.985962,173.964523 
	C230.271683,178.000504 232.637024,180.503677 235.781967,182.613449 
	C237.159515,183.537552 238.342102,184.752289 239.613205,185.835052 
	C239.244995,186.396591 238.876785,186.958115 238.508575,187.519653 
	C236.875412,186.529068 234.957809,185.814850 233.669632,184.489059 
	C231.165482,181.911789 229.531693,181.963013 228.424881,185.500671 
	C227.919479,187.116013 227.544876,188.772278 227.178085,190.156631 
	C231.607437,190.508087 235.309998,190.864990 239.020782,191.079208 
	C243.022583,191.310242 246.187271,189.972763 247.901062,185.196945 
M197.012878,177.272903 
	C195.610260,181.757614 194.207642,186.242325 192.792435,190.767258 
	C195.916443,190.767258 199.320831,190.767258 201.953888,190.767258 
	C203.998337,183.517242 205.917938,176.709976 207.871109,169.783722 
	C204.902618,169.783722 201.560730,169.783722 198.460526,169.783722 
	C197.981995,172.313797 197.589539,174.388779 197.012878,177.272903 
M108.977821,214.173996 
	C109.834892,214.324768 111.379311,214.752731 111.446915,214.585114 
	C112.640816,211.624557 111.836853,209.494614 108.354897,207.795349 
	C108.621292,210.220428 108.796135,211.812149 108.977821,214.173996 
M160.516861,214.749573 
	C161.726074,211.667465 160.711182,209.717728 156.764008,209.122482 
	C157.845230,211.176270 158.926437,213.230072 160.516861,214.749573 
M102.016792,216.254059 
	C102.663155,216.739944 103.309517,217.225845 103.955872,217.711731 
	C104.312622,215.960571 104.669380,214.209396 105.026131,212.458237 
	C104.370010,212.313950 103.713898,212.169678 103.057777,212.025406 
	C102.701569,213.162369 102.345360,214.299347 102.016792,216.254059 
M152.078217,209.571198 
	C152.129227,210.317261 152.180252,211.063309 152.231262,211.809387 
	C152.862015,211.406082 153.492767,211.002777 154.123505,210.599472 
	C153.628281,210.142502 153.133057,209.685532 152.078217,209.571198 
M69.253372,215.704178 
	C69.132469,216.388077 69.011566,217.071991 68.890656,217.755890 
	C69.448853,217.643661 70.007057,217.531418 70.565247,217.419174 
	C70.306236,216.729965 70.047226,216.040756 69.253372,215.704178 
M104.039070,210.378571 
	C104.527122,210.253647 105.015167,210.128723 105.503212,210.003784 
	C104.946632,209.539307 104.390053,209.074814 103.833496,208.610321 
	C103.752960,209.075180 103.672424,209.540039 104.039070,210.378571 
M152.631943,216.891083 
	C152.940567,216.582291 153.249207,216.273514 153.557831,215.964722 
	C153.192596,215.784637 152.827347,215.604553 152.462097,215.424469 
	C152.339005,215.898529 152.215912,216.372589 152.631943,216.891083 
M76.062752,216.511139 
	C76.062752,216.511139 75.866150,216.468079 75.866150,216.468079 
	C75.866150,216.468079 76.176399,216.575394 76.062752,216.511139 
M108.521469,217.357239 
	C108.521469,217.357239 108.416420,217.550400 108.416420,217.550400 
	C108.416420,217.550400 108.630836,217.519012 108.521469,217.357239 
z"/>
<path fill="#FFB404" opacity="1.000000" stroke="none" 
	d="
M105.903000,68.866379 
	C102.633530,53.334995 108.805077,41.769180 120.651085,33.431145 
	C139.405457,20.230524 160.736633,15.013163 183.534454,16.331060 
	C190.635468,16.741558 196.260376,21.176592 201.188904,25.973904 
	C209.602005,34.163017 216.805588,43.273174 220.773254,54.561832 
	C221.470642,56.546005 222.368698,58.459652 224.224976,60.184841 
	C223.634140,56.277641 223.043289,52.370438 222.344162,47.747200 
	C227.655136,50.030708 232.654236,51.798405 237.280518,54.265282 
	C243.141907,57.390751 244.428482,62.846031 244.092529,69.170731 
	C243.804504,74.593147 240.891022,78.014832 236.431274,79.863358 
	C232.188919,81.621758 227.440704,82.121948 223.061920,83.608406 
	C221.399887,84.172615 219.421036,85.670944 218.838272,87.215714 
	C216.615234,93.108452 214.748352,99.150978 213.065063,105.225296 
	C212.243942,108.188347 210.652420,108.419823 208.255692,107.587280 
	C205.272522,106.551003 202.340805,105.320671 199.296692,104.514656 
	C191.076263,102.338013 191.077377,102.409012 190.811981,93.710526 
	C190.684998,89.548622 190.438095,85.390488 190.293869,81.228973 
	C190.068436,74.724533 191.751663,68.885338 195.407242,63.354050 
	C201.154770,54.657417 200.554367,45.286480 196.149246,36.353500 
	C192.802979,29.567757 186.507675,29.463083 181.918030,35.498764 
	C176.839706,42.177067 176.114716,55.014870 181.293350,61.939148 
	C186.104004,68.371399 187.663635,75.215019 187.191620,83.006271 
	C186.822250,89.103073 187.117599,95.240150 187.117599,101.321930 
	C178.146469,101.321930 170.059433,101.321930 161.384720,101.321930 
	C161.384720,91.515358 161.362244,81.493927 161.429611,71.473114 
	C161.434692,70.714211 161.899506,69.780258 162.451874,69.230179 
	C169.464874,62.246140 168.000900,53.354603 168.031677,44.799618 
	C168.047913,40.288090 168.034546,35.776451 168.034546,31.264864 
	C167.184311,31.252619 166.334061,31.240376 165.483826,31.228132 
	C165.483826,38.650742 165.483826,46.073349 165.483826,53.495960 
	C164.622757,53.502945 163.761703,53.509930 162.900635,53.516914 
	C162.900635,46.059231 162.900635,38.601543 162.900635,31.143858 
	C162.119095,31.155582 161.337570,31.167307 160.556030,31.179031 
	C160.556030,38.610847 160.556030,46.042664 160.556030,53.474480 
	C159.772827,53.500473 158.989624,53.526466 158.206421,53.552456 
	C158.206421,46.147148 158.206421,38.741840 158.206421,31.336535 
	C157.392532,31.306980 156.578644,31.277424 155.764755,31.247869 
	C153.994308,38.503704 155.905746,46.177444 154.667648,53.493702 
	C154.157990,53.516735 153.648315,53.539768 153.138657,53.562801 
	C153.138657,46.145569 153.138657,38.728336 153.138657,31.311102 
	C152.445312,31.228619 151.751953,31.146135 151.058609,31.063652 
	C150.707855,32.421429 150.072281,33.775349 150.053848,35.137615 
	C149.954697,42.466381 149.691711,49.817829 150.165787,57.117245 
	C150.356384,60.051865 152.337814,62.852913 153.401978,65.752274 
	C154.855240,69.711830 157.122833,73.643379 157.406906,77.701340 
	C157.904449,84.809258 157.258759,92.009903 156.846313,99.157524 
	C156.768692,100.502533 155.814041,102.632179 154.805908,102.950996 
	C148.822861,104.843117 142.704941,106.308754 136.071152,108.066437 
	C134.774155,100.039734 133.490112,92.093163 132.451050,85.662682 
	C125.489761,84.035446 118.886261,83.746895 113.738770,80.861145 
	C110.118568,78.831627 108.479263,73.268654 105.903000,68.866379 
z"/>
<path fill="#FFB70D" opacity="1.000000" stroke="none" 
	d="
M144.947617,183.107681 
	C142.621170,185.327255 140.591644,188.044510 137.899307,189.650833 
	C133.765320,192.117279 128.968735,192.686478 124.835045,189.691513 
	C120.738747,186.723648 121.947914,182.420929 123.162148,178.368820 
	C123.351036,177.738480 123.471420,177.087601 123.299011,176.041504 
	C122.974556,175.636765 122.921913,175.692291 122.921921,175.692291 
	C124.064545,174.883591 125.116325,173.876068 126.367294,173.304489 
	C129.738800,171.764053 133.096176,169.600586 136.640640,169.166580 
	C142.260864,168.478424 144.318573,170.750473 145.621994,177.741104 
	C147.052963,176.279404 148.164459,175.282654 149.113800,174.149979 
	C152.917465,169.611771 157.913925,167.846207 163.387695,169.473938 
	C165.592407,170.129517 168.287186,172.963882 168.672119,175.170685 
	C169.690857,181.011002 167.058380,185.927017 162.123154,189.280624 
	C156.399872,193.169769 150.520996,192.161713 145.570114,186.259079 
	C146.155228,184.901443 146.468384,183.949738 146.781555,182.998032 
	C146.170258,183.034576 145.558929,183.071136 144.947617,183.107681 
M135.153885,183.512238 
	C135.916336,179.908752 136.678772,176.305267 137.441223,172.701782 
	C132.093674,175.378967 129.530991,183.287628 131.378433,189.087173 
	C132.813049,187.138962 133.867538,185.706955 135.153885,183.512238 
M154.316177,187.852051 
	C158.808121,186.498550 162.065369,176.897263 159.251999,172.146774 
	C155.052185,176.431503 154.075073,181.637939 154.316177,187.852051 
z"/>
<path fill="#181818" opacity="1.000000" stroke="none" 
	d="
M198.885376,140.043518 
	C195.000214,142.679520 191.484634,142.580429 187.900406,140.201202 
	C185.966431,138.917419 183.883102,137.860855 181.893295,136.658493 
	C176.984146,133.692093 172.141495,133.869690 167.339493,136.900436 
	C166.777634,137.255051 166.194336,137.581253 165.661346,137.975220 
	C154.714249,146.066986 148.364120,140.492310 143.696304,131.801315 
	C143.262543,130.993698 142.822403,130.189499 142.301498,129.229416 
	C151.086884,131.599762 150.945648,130.403336 161.888992,129.111450 
	C170.253616,128.123978 179.025925,129.728836 187.635757,128.785812 
	C188.833862,128.654572 190.197662,129.442566 191.394836,129.998642 
	C196.705322,132.465347 201.797104,132.843613 206.478149,128.289993 
	C206.871063,128.716949 207.263962,129.143906 207.656876,129.570847 
	C204.841873,133.001083 202.026886,136.431320 198.885376,140.043518 
z"/>
<path fill="#FFB70D" opacity="1.000000" stroke="none" 
	d="
M168.912155,187.657135 
	C170.655563,181.597748 172.223892,175.896118 174.047882,169.264984 
	C178.243546,169.491440 183.266937,169.203125 187.981537,170.274170 
	C190.059433,170.746201 192.591888,173.761688 193.043839,176.000702 
	C194.440781,182.921402 189.175079,190.004211 182.236298,190.768341 
	C177.380753,191.303055 172.418777,190.871506 166.721725,190.871506 
	C167.694321,189.492920 168.215683,188.753922 168.912155,187.657135 
M183.098434,183.399719 
	C183.726181,180.680649 184.482361,177.980637 184.890747,175.229019 
	C184.991989,174.546967 184.114105,173.360046 183.404068,173.048569 
	C182.960114,172.853821 181.521118,173.720322 181.328674,174.353699 
	C180.007294,178.702576 178.897293,183.115662 177.719238,187.508087 
	C178.168655,187.804733 178.618073,188.101395 179.067490,188.398041 
	C180.326248,186.979721 181.585022,185.561417 183.098434,183.399719 
z"/>
<path fill="#FFB914" opacity="1.000000" stroke="none" 
	d="
M224.259247,177.536789 
	C223.801514,179.395676 223.528976,180.862961 223.256454,182.330231 
	C223.641922,182.284225 224.027390,182.238220 224.412857,182.192215 
	C224.752045,184.106262 225.497498,186.054825 225.338531,187.926559 
	C225.077484,191.000351 222.607910,191.109924 220.111023,191.062637 
	C215.214188,190.969879 210.314362,191.035355 205.959320,191.035355 
	C208.021347,183.856628 209.947418,177.151184 212.154297,169.468155 
	C216.453751,169.468155 221.862427,169.337265 227.251175,169.606003 
	C228.081833,169.647400 229.514847,171.555359 229.471619,172.547913 
	C229.344269,175.471161 227.913269,177.579971 224.259247,177.536789 
M218.231644,181.251251 
	C217.336884,183.297348 216.442108,185.343445 215.547333,187.389542 
	C215.972061,187.736130 216.396774,188.082733 216.821503,188.429337 
	C218.585693,187.326019 220.349899,186.222702 222.211746,185.058319 
	C220.835403,183.594864 219.861145,182.558914 218.231644,181.251251 
z"/>
<path fill="#FFB70E" opacity="1.000000" stroke="none" 
	d="
M247.820816,185.579529 
	C246.187271,189.972763 243.022583,191.310242 239.020782,191.079208 
	C235.309998,190.864990 231.607437,190.508087 227.178085,190.156631 
	C227.544876,188.772278 227.919479,187.116013 228.424881,185.500671 
	C229.531693,181.963013 231.165482,181.911789 233.669632,184.489059 
	C234.957809,185.814850 236.875412,186.529068 238.508575,187.519653 
	C238.876785,186.958115 239.244995,186.396591 239.613205,185.835052 
	C238.342102,184.752289 237.159515,183.537552 235.781967,182.613449 
	C232.637024,180.503677 230.271683,178.000504 231.985962,173.964523 
	C233.734131,169.848694 237.313507,168.930389 241.450531,169.262909 
	C243.787445,169.450760 246.151627,169.323196 248.482162,169.553650 
	C249.298920,169.634415 250.776016,170.535568 250.720673,170.764313 
	C250.228149,172.800262 249.552780,174.814316 248.645920,176.697372 
	C248.541199,176.914810 246.562439,176.524231 245.686798,176.013718 
	C243.941284,174.996033 242.358536,173.699142 240.129547,173.166504 
	C241.175583,178.412964 249.273712,178.605911 247.820816,185.579529 
z"/>
<path fill="#FFB810" opacity="1.000000" stroke="none" 
	d="
M123.124344,175.250122 
	C122.921913,175.692291 122.974556,175.636765 122.986465,175.612915 
	C122.019661,176.008667 121.040955,176.428284 119.580757,176.406982 
	C117.877197,174.975800 116.655136,173.985519 115.433067,172.995239 
	C114.443336,174.743362 113.453613,176.491486 112.246437,178.623672 
	C115.148705,177.958206 116.996307,177.534561 118.843903,177.110916 
	C118.627068,178.407364 118.438225,179.709229 118.188255,180.999268 
	C117.372742,185.207886 115.669838,186.914886 111.315086,181.780869 
	C111.000961,185.453522 110.794357,187.869019 110.554390,190.674561 
	C107.442673,190.674561 103.733170,190.674561 100.612770,190.674561 
	C102.524223,183.925613 104.462547,177.081818 106.623764,169.450989 
	C110.976540,169.450989 116.259842,169.183273 121.500458,169.540894 
	C125.277580,169.798660 123.946037,172.605728 123.124344,175.250122 
z"/>
<path fill="#FFB811" opacity="1.000000" stroke="none" 
	d="
M197.104980,176.868317 
	C197.589539,174.388779 197.981995,172.313797 198.460526,169.783722 
	C201.560730,169.783722 204.902618,169.783722 207.871109,169.783722 
	C205.917938,176.709976 203.998337,183.517242 201.953888,190.767258 
	C199.320831,190.767258 195.916443,190.767258 192.792435,190.767258 
	C194.207642,186.242325 195.610260,181.757614 197.104980,176.868317 
z"/>
<path fill="#EDEDED" opacity="1.000000" stroke="none" 
	d="
M108.974403,213.788940 
	C108.796135,211.812149 108.621292,210.220428 108.354897,207.795349 
	C111.836853,209.494614 112.640816,211.624557 111.446915,214.585114 
	C111.379311,214.752731 109.834892,214.324768 108.974403,213.788940 
z"/>
<path fill="#F6F6F6" opacity="1.000000" stroke="none" 
	d="
M160.262268,215.016724 
	C158.926437,213.230072 157.845230,211.176270 156.764008,209.122482 
	C160.711182,209.717728 161.726074,211.667465 160.262268,215.016724 
z"/>
<path fill="#EDEDED" opacity="1.000000" stroke="none" 
	d="
M102.002975,215.845184 
	C102.345360,214.299347 102.701569,213.162369 103.057777,212.025406 
	C103.713898,212.169678 104.370010,212.313950 105.026131,212.458237 
	C104.669380,214.209396 104.312622,215.960571 103.955872,217.711731 
	C103.309517,217.225845 102.663155,216.739944 102.002975,215.845184 
z"/>
<path fill="#F6F6F6" opacity="1.000000" stroke="none" 
	d="
M152.358032,209.399872 
	C153.133057,209.685532 153.628281,210.142502 154.123505,210.599487 
	C153.492767,211.002777 152.862015,211.406082 152.231262,211.809387 
	C152.180252,211.063309 152.129227,210.317261 152.358032,209.399872 
z"/>
<path fill="#FFB70C" opacity="1.000000" stroke="none" 
	d="
M144.967865,183.470779 
	C145.558929,183.071136 146.170258,183.034576 146.781555,182.998032 
	C146.468384,183.949738 146.155228,184.901443 145.517548,185.924896 
	C145.124725,185.275696 145.056427,184.554794 144.967865,183.470779 
z"/>
<path fill="#EDEDED" opacity="1.000000" stroke="none" 
	d="
M74.204330,211.957169 
	C73.219231,212.684998 72.234131,213.412811 71.249039,214.140640 
	C71.049057,213.960663 70.849068,213.780701 70.649086,213.600739 
	C71.295273,212.730270 71.941460,211.859802 73.115395,210.982117 
	C73.810089,210.986069 73.977036,210.997238 74.205711,211.242645 
	C74.267441,211.476852 74.204323,211.957169 74.204330,211.957169 
z"/>
<path fill="#B0B0B0" opacity="1.000000" stroke="none" 
	d="
M74.143982,211.008423 
	C73.977036,210.997238 73.810089,210.986069 73.393456,210.970154 
	C73.103508,210.387161 73.063255,209.808899 73.023010,209.230621 
	C73.942268,209.658661 74.861526,210.086700 75.499573,210.832550 
	C74.860229,211.103058 74.502106,211.055740 74.143982,211.008423 
z"/>
<path fill="#EDEDED" opacity="1.000000" stroke="none" 
	d="
M69.520798,215.527863 
	C70.047226,216.040756 70.306236,216.729965 70.565247,217.419174 
	C70.007057,217.531418 69.448853,217.643661 68.890656,217.755890 
	C69.011566,217.071991 69.132469,216.388077 69.520798,215.527863 
z"/>
<path fill="#6B6B6B" opacity="1.000000" stroke="none" 
	d="
M74.205711,211.242630 
	C74.502106,211.055740 74.860229,211.103058 75.489380,211.154419 
	C75.836136,212.041153 75.911858,212.923843 75.987572,213.806549 
	C75.775826,213.876709 75.564072,213.946884 75.352325,214.017044 
	C75.089836,213.521729 74.827354,213.026428 74.384598,212.244141 
	C74.204323,211.957169 74.267441,211.476852 74.205711,211.242630 
z"/>
<path fill="#EDEDED" opacity="1.000000" stroke="none" 
	d="
M103.815475,210.191742 
	C103.672424,209.540039 103.752960,209.075180 103.833488,208.610321 
	C104.390053,209.074814 104.946632,209.539307 105.503212,210.003784 
	C105.015167,210.128723 104.527122,210.253647 103.815475,210.191742 
z"/>
<path fill="#F6F6F6" opacity="1.000000" stroke="none" 
	d="
M152.362381,216.868866 
	C152.215912,216.372589 152.339005,215.898529 152.462097,215.424469 
	C152.827347,215.604553 153.192596,215.784637 153.557831,215.964722 
	C153.249207,216.273514 152.940567,216.582291 152.362381,216.868866 
z"/>
<path fill="#6B6B6B" opacity="1.000000" stroke="none" 
	d="
M76.119576,216.543274 
	C76.176399,216.575394 75.866150,216.468079 75.866150,216.468079 
	C75.866150,216.468079 76.062752,216.511139 76.119576,216.543274 
z"/>
<path fill="#EDEDED" opacity="1.000000" stroke="none" 
	d="
M108.576157,217.438126 
	C108.630836,217.519012 108.416420,217.550400 108.416420,217.550400 
	C108.416420,217.550400 108.521469,217.357239 108.576157,217.438126 
z"/>
<path fill="#FFF9EC" opacity="1.000000" stroke="none" 
	d="
M135.037964,183.893585 
	C133.867538,185.706955 132.813049,187.138962 131.378433,189.087173 
	C129.530991,183.287628 132.093674,175.378967 137.441223,172.701782 
	C136.678772,176.305267 135.916336,179.908752 135.037964,183.893585 
z"/>
<path fill="#FFFAEE" opacity="1.000000" stroke="none" 
	d="
M154.090790,187.496613 
	C154.075073,181.637939 155.052185,176.431503 159.251999,172.146774 
	C162.065369,176.897263 158.808121,186.498550 154.090790,187.496613 
z"/>
<path fill="#FFF8E8" opacity="1.000000" stroke="none" 
	d="
M182.971115,183.771408 
	C181.585022,185.561417 180.326248,186.979721 179.067490,188.398041 
	C178.618073,188.101395 178.168655,187.804733 177.719238,187.508087 
	C178.897293,183.115662 180.007294,178.702576 181.328674,174.353699 
	C181.521118,173.720322 182.960114,172.853821 183.404068,173.048569 
	C184.114105,173.360046 184.991989,174.546967 184.890747,175.229019 
	C184.482361,177.980637 183.726181,180.680649 182.971115,183.771408 
z"/>
<path fill="#FFF9EA" opacity="1.000000" stroke="none" 
	d="
M218.559265,181.387115 
	C219.861145,182.558914 220.835403,183.594864 222.211746,185.058319 
	C220.349899,186.222702 218.585693,187.326019 216.821503,188.429337 
	C216.396774,188.082733 215.972061,187.736130 215.547333,187.389542 
	C216.442108,185.343445 217.336884,183.297348 218.559265,181.387115 
z"/>
<path fill="#FFF7E3" opacity="1.000000" stroke="none" 
	d="
M118.958763,177.026245 
	C116.996307,177.534561 115.148705,177.958206 112.246437,178.623672 
	C113.453613,176.491486 114.443336,174.743362 115.433067,172.995239 
	C116.655136,173.985519 117.877197,174.975800 119.154587,176.328461 
	C119.209908,176.690826 119.073624,176.941589 118.958763,177.026245 
z"/>
</svg>