<svg xmlns="http://www.w3.org/2000/svg" viewBox="0 0 60 60"><path fill="#e3f0ff" d="M53,13V50a3,3,0,0,1-3,3H4a3,3,0,0,1-3-3V13l2-1H52Z"/><path fill="#11117f" d="M43,32.576,33.84,24.72a1.276,1.276,0,0,0-1.67,0L18,37l-4.11-3.29a1.284,1.284,0,0,0-1.7.1l-4.6,4.6A2.006,2.006,0,0,0,7,39.83V46a2.006,2.006,0,0,0,2,2H28Z"/><path fill="#d6a36b" d="M34.99,55.43l-.02.02a5.681,5.681,0,0,1-2.44,1.42L24.9,58.95a1.5,1.5,0,0,1-1.84-1.85l2.08-7.63a5.523,5.523,0,0,1,1.41-2.44l.02-.01L33,49Z"/><path fill="#c3d2ea" d="M53,4v9H1V4A3,3,0,0,1,4,1H50A3,3,0,0,1,53,4Z"/><circle cx="12.5" cy="23.5" r="4.5" fill="#eaad32"/><polygon fill="#f2c23b" points="50.77 39.65 34.99 55.43 26.57 47.02 42.35 31.24 48 34 50.77 39.65"/><path fill="#ed5f54" d="M58.13,32.29l-3.16,3.16L49,33l-2.45-5.97,3.16-3.16a2.982,2.982,0,0,1,4.21,0l4.21,4.21A2.982,2.982,0,0,1,58.13,32.29Z"/><circle cx="7" cy="7" r="2" fill="#fff"/><rect width="5.943" height="11.904" x="45.688" y="27.39" fill="#d5e1f7" transform="rotate(-45 48.66 33.343)"/><path fill="#a1b5d1" d="M26 6H14a1 1 0 010-2H26a1 1 0 010 2zM21 10H14a1 1 0 010-2h7a1 1 0 010 2z"/><rect width="22.313" height="2" x="27.51" y="42.334" fill="#eaad32" transform="rotate(-45 38.666 43.333)"/></svg>