<svg xmlns="http://www.w3.org/2000/svg" viewBox="0 0 70 70"><path fill="#eae4dd" d="M59.376 34.742c0 13.466-10.918 24.363-24.384 24.363-13.446 0-24.364-10.897-24.364-24.363 0-13.447 10.918-24.364 24.364-24.364 13.466 0 24.384 10.917 24.384 24.364z"/><path fill="#dfd9d2" d="M59.377 34.74c0 13.47-10.92 24.37-24.38 24.37-7.58 0-14.36-3.47-18.83-8.9 4.21 3.47 9.6 5.56 15.49 5.56 13.47 0 24.38-10.9 24.38-24.36 0-5.87-2.08-11.25-5.53-15.46 5.41 4.47 8.87 11.23 8.87 18.79z"/><path fill="#f4efea" d="M44.437 19.8c0 13.47-10.92 24.37-24.38 24.37-2.83 0-5.54-.48-8.06-1.37-.89-2.52-1.37-5.23-1.37-8.06 0-13.44 10.92-24.36 24.37-24.36 2.83 0 5.55.48 8.07 1.38a24.07 24.07 0 0 1 1.37 8.04z"/><path fill="#ffd347" d="M58.892 55.219a2.568 2.568 0 0 1-2.054-4.106 26.968 26.968 0 0 0 4.644-9.84 2.569 2.569 0 0 1 4.99 1.213A32.106 32.106 0 0 1 60.95 54.19a2.564 2.564 0 0 1-2.058 1.029z"/><path fill="#51a3f1" d="M11.042 55.15a2.564 2.564 0 0 1-2.062-1.035 32.083 32.083 0 0 1-5.488-11.718 2.567 2.567 0 1 1 4.992-1.2 26.982 26.982 0 0 0 4.616 9.854 2.567 2.567 0 0 1-2.058 4.1z"/><path fill="#ffd347" d="M64.428 32.544a2.568 2.568 0 0 1-2.531-2.155 26.964 26.964 0 0 0-3.87-10.166 2.568 2.568 0 0 1 4.336-2.75 32.092 32.092 0 0 1 4.602 12.09 2.569 2.569 0 0 1-2.537 2.981z"/><path fill="#51a3f1" d="M5.57 32.46a2.568 2.568 0 0 1-2.536-2.987 32.042 32.042 0 0 1 4.637-12.08 2.567 2.567 0 0 1 4.327 2.764A26.94 26.94 0 0 0 8.1 30.313a2.567 2.567 0 0 1-2.53 2.148z"/><path fill="#607264" d="M51.937 12.83a2.557 2.557 0 0 1-1.458-.456 27.004 27.004 0 0 0-10.006-4.273 2.566 2.566 0 0 1-2.002-3.029c.285-1.39 1.65-2.291 3.03-2.001a32.102 32.102 0 0 1 11.898 5.08 2.568 2.568 0 0 1-1.462 4.679zm-33.821-.05a2.565 2.565 0 0 1-1.456-4.682 32.084 32.084 0 0 1 11.912-5.047 2.568 2.568 0 0 1 1.013 5.034 26.984 26.984 0 0 0-10.017 4.243c-.444.306-.95.453-1.452.453z"/><path fill="#ffc447" d="M66.477 42.49c-1.04 4.25-2.9 8.18-5.53 11.7-.5.67-1.27 1.03-2.05 1.03-.54 0-1.08-.17-1.54-.51-.35-.26-.61-.59-.78-.95.35.17.73.25 1.11.25.78 0 1.55-.35 2.06-1.03 2.63-3.51 4.48-7.45 5.52-11.7.14-.6.07-1.2-.19-1.72 1.08.51 1.69 1.72 1.4 2.93z"/><path fill="#4087f1" d="M12.577 54.64c-.46.35-1 .51-1.53.51-.79 0-1.56-.36-2.07-1.03-.11-.15-.23-.31-.33-.47.37.19.78.29 1.19.29.53 0 1.07-.16 1.53-.5a2.58 2.58 0 0 0 .53-3.6 26.838 26.838 0 0 1-4.62-9.85c-.04-.18-.1-.34-.19-.5.68.31 1.21.92 1.4 1.71.86 3.57 2.41 6.89 4.61 9.85.85 1.14.61 2.75-.52 3.59z"/><path fill="#ffc447" d="M64.847 32.51c-.14.02-.28.03-.42.03-1 0-1.89-.57-2.3-1.45.34.16.71.25 1.09.25.14 0 .28-.01.42-.04 1.4-.22 2.35-1.54 2.12-2.94-.68-4.22-2.18-8.19-4.44-11.82.42.2.78.51 1.05.93 2.35 3.71 3.89 7.78 4.6 12.09.23 1.4-.72 2.72-2.12 2.95z"/><path fill="#4087f1" d="M11.997 20.16a27 27 0 0 0-3.9 10.15 2.563 2.563 0 0 1-2.53 2.15c-.14 0-.28-.01-.42-.03-.85-.15-1.53-.69-1.88-1.42.21.1.43.17.67.21.15.02.29.03.43.03 1.23 0 2.32-.89 2.53-2.14.6-3.63 1.91-7.05 3.9-10.16.49-.77.52-1.72.14-2.49.1.04.19.09.28.15 1.2.77 1.55 2.35.78 3.55z"/><path fill="#4f6555" d="M54.047 11.72a2.557 2.557 0 0 1-3.57.65c-3.03-2.09-6.4-3.53-10-4.27-.82-.17-1.47-.71-1.8-1.41.18.09.38.16.59.2 3.6.74 6.97 2.18 10.01 4.28.44.31.95.45 1.45.45.82 0 1.62-.38 2.12-1.1.55-.8.58-1.8.18-2.61.13.07.25.16.37.24a2.56 2.56 0 0 1 .65 3.57zm-24.46-3.63a26.87 26.87 0 0 0-10.02 4.24 2.574 2.574 0 0 1-3.57-.66c-.08-.12-.14-.23-.2-.36.35.17.73.26 1.11.26.5 0 1.01-.14 1.45-.45a27.01 27.01 0 0 1 10.02-4.24 2.574 2.574 0 0 0 2.01-3.03c-.04-.21-.11-.41-.21-.59.71.32 1.25.97 1.42 1.8.28 1.39-.62 2.75-2.01 3.03z"/><path fill="#ce8142" d="M54.854 60.325A6.696 6.696 0 0 1 48.17 67h-26.34c-3.675 0-6.685-3.01-6.685-6.675 0-1.837.755-3.506 1.961-4.724a6.703 6.703 0 0 1 4.724-1.961h26.34c3.675 0 6.685 3.01 6.685 6.685z"/><path fill="#ec9140" d="M45.255 53.64H21.83a6.703 6.703 0 0 0-4.724 1.961 6.7 6.7 0 0 0-1.96 4.872l.007.007h23.264a6.84 6.84 0 0 0 6.84-6.84z"/><path fill="#b66f2e" d="M54.857 60.33c0 1.82-.76 3.49-1.96 4.71-1.22 1.2-2.89 1.96-4.73 1.96h-26.34c-2.28 0-4.31-1.17-5.52-2.93 1.08.75 2.39 1.19 3.79 1.19h26.33a6.7 6.7 0 0 0 4.73-1.96c1.2-1.22 1.96-2.89 1.96-4.71 0-1.4-.44-2.71-1.2-3.79 1.77 1.21 2.94 3.24 2.94 5.53z"/><path fill="#fff" d="M21.07 61.29c.007.28.147.813 1.067.813.499 0 1.054-.119 1.054-.653 0-.393-.38-.498-.913-.625l-.541-.126c-.815-.19-1.601-.372-1.601-1.482 0-.562.302-1.552 1.938-1.552 1.545 0 1.96 1.011 1.967 1.63h-1.012c-.028-.225-.112-.759-1.032-.759-.4 0-.878.147-.878.604 0 .393.323.478.534.527l1.229.302c.688.168 1.32.45 1.32 1.355 0 1.517-1.545 1.65-1.988 1.65-1.84 0-2.156-1.06-2.156-1.685h1.011zm5.937 1.551h-1.054v-4.15H24.43v-.893h4.101v.893h-1.524v4.15zm4.069-5.176c.667 0 2.422.288 2.422 2.655s-1.755 2.654-2.422 2.654c-.668 0-2.424-.287-2.424-2.654s1.756-2.655 2.424-2.655zm0 4.418c.568 0 1.369-.351 1.369-1.763s-.8-1.763-1.369-1.763c-.57 0-1.37.351-1.37 1.763s.8 1.763 1.37 1.763zm3.269-4.285h2.55c1.34 0 1.586.99 1.586 1.426 0 .555-.28 1.033-.78 1.201.415.183.64.337.64 1.278 0 .738 0 .92.224 1.005v.133H37.4c-.07-.239-.113-.499-.113-1.018 0-.688-.042-.955-.822-.955h-1.089v1.973h-1.031v-5.043zm2.268 2.22c.548 0 .815-.19.815-.689 0-.266-.12-.66-.737-.66h-1.315v1.349h1.237zm3.774 2.823h-1.053v-5.043h1.053v5.043zm4.693-4.15h-2.676v1.06h2.457v.892h-2.457v1.306h2.795v.892H41.37v-5.043h3.709v.893zm1.73 2.598c.007.28.147.814 1.067.814.5 0 1.054-.119 1.054-.653 0-.393-.38-.498-.913-.625l-.54-.126c-.816-.19-1.602-.372-1.602-1.482 0-.562.302-1.552 1.938-1.552 1.545 0 1.96 1.011 1.967 1.63h-1.012c-.028-.225-.112-.759-1.032-.759-.4 0-.878.147-.878.604 0 .393.323.478.534.527l1.229.302c.688.168 1.32.45 1.32 1.355 0 1.517-1.545 1.65-1.987 1.65-1.84 0-2.157-1.06-2.157-1.685h1.012z"/><path fill="#f7a669" d="M33.87 55.27a.64.64 0 0 1-.637.638h-8.28c-.351 0-.629-.287-.629-.638s.278-.638.629-.638h8.28a.64.64 0 0 1 .638.638zm5.292 0a.632.632 0 0 1-.629.638h-2.867c-.352 0-.639-.287-.639-.638s.287-.638.639-.638h2.867c.352 0 .63.286.63.638z"/><path fill="#582219" d="M47.823 34.749c0 1.368-1.123 2.473-2.508 2.473h-7.816v7.833c0 1.368-1.122 2.508-2.49 2.508-1.386 0-2.49-1.14-2.49-2.508v-7.833h-7.851c-1.368 0-2.491-1.105-2.491-2.473a2.489 2.489 0 0 1 2.49-2.49h7.851v-7.851a2.478 2.478 0 0 1 2.49-2.49 2.489 2.489 0 0 1 2.491 2.49v7.85h7.816a2.493 2.493 0 0 1 2.508 2.491z"/><path fill="#6f362a" d="M47.823 34.749c0 1.368-1.123 2.473-2.508 2.473h-7.816v7.833c0 1.368-1.122 2.508-2.49 2.508-1.386 0-2.49-1.14-2.49-2.508v-7.833h-7.851c-1.368 0-2.491-1.105-2.491-2.473a2.489 2.489 0 0 1 2.49-2.49h7.851v-7.851a2.478 2.478 0 0 1 2.49-2.49 2.489 2.489 0 0 1 2.491 2.49v7.85h7.816a2.493 2.493 0 0 1 2.508 2.491z"/><path fill="#874b41" d="M34.523 21.966a2.475 2.475 0 0 0-2.005 2.442v7.85h-7.85a2.49 2.49 0 0 0-2.441 1.996h10.036a2.26 2.26 0 0 0 2.26-2.26V21.966z"/><path fill="#582219" d="M23.657 36.206h8.861v1.02h-7.851c-.95 0-1.78-.53-2.2-1.32.35.19.76.3 1.19.3zm12.83-12.81c0-.43-.11-.83-.29-1.18.78.43 1.3 1.25 1.3 2.19v7.852h-1.01v-8.862zm11.34 11.35c0 1.37-1.13 2.48-2.51 2.48h-7.82v7.83c0 1.37-1.12 2.51-2.49 2.51-.94 0-1.76-.53-2.19-1.31.35.18.75.29 1.18.29 1.37 0 2.49-1.14 2.49-2.5v-7.84h7.82c1.38 0 2.5-1.1 2.5-2.47 0-.43-.11-.83-.29-1.18.78.43 1.31 1.25 1.31 2.19z"/></svg>