<svg xmlns="http://www.w3.org/2000/svg" width="600" height="360" viewBox="0 0 600 360" version="1.1"><path d="M 244.750 103.184 C 237.581 104.299, 235.633 106, 241.525 106 C 243.464 106, 247.626 106.953, 250.775 108.118 C 255.277 109.783, 258.529 110.204, 266 110.089 C 271.225 110.008, 278.875 110.379, 283 110.913 C 292.208 112.105, 294.208 110.875, 287.639 108.060 C 275.899 103.027, 258.487 101.048, 244.750 103.184 M 223.115 110.497 C 221.254 111.333, 216.950 114.001, 213.551 116.426 C 208.303 120.172, 206.898 121.865, 204.223 127.668 C 200.575 135.584, 197.382 146.947, 198.204 149.089 C 198.515 149.901, 202.687 152.266, 207.473 154.345 L 216.176 158.125 224.338 152.672 C 228.827 149.672, 235.980 145.286, 240.234 142.923 C 246.305 139.552, 248.176 137.970, 248.938 135.564 C 250.336 131.149, 254 116.354, 254 115.124 C 254 113.510, 242.330 110.286, 233.995 109.597 C 228.366 109.132, 225.657 109.356, 223.115 110.497 M 259.231 116.625 C 258.696 117.656, 257.195 122.956, 255.895 128.402 C 253.841 137.011, 253.727 138.417, 255.017 139.178 C 255.832 139.659, 261.450 142.883, 267.500 146.342 C 273.550 149.801, 280.089 153.600, 282.030 154.784 L 285.560 156.938 292.030 153.018 C 295.589 150.861, 300.199 147.512, 302.276 145.575 L 306.052 142.054 302.488 134.976 C 298.112 126.287, 292.495 118.339, 289.639 116.795 C 288.459 116.158, 281.380 115.440, 273.852 115.195 C 261.267 114.785, 260.128 114.896, 259.231 116.625 M 192.528 138.389 C 188.403 144.838, 183.473 156.664, 182.478 162.500 C 181.824 166.338, 182.004 166.175, 186.926 158.500 C 189.747 154.100, 192.515 148.700, 193.077 146.500 C 193.639 144.300, 194.751 140.511, 195.547 138.080 C 196.343 135.650, 196.796 133.463, 196.555 133.221 C 196.313 132.979, 194.501 135.305, 192.528 138.389 M 374.519 155.500 C 374.234 156.875, 373.780 159.071, 373.511 160.381 C 373.242 161.690, 372.117 162.998, 371.011 163.287 C 369.670 163.638, 369 164.649, 369 166.325 C 369 167.706, 368.727 169.548, 368.393 170.418 C 367.959 171.548, 368.380 172, 369.868 172 C 371.599 172, 371.862 172.464, 371.430 174.750 C 371.144 176.262, 370.326 181.254, 369.612 185.842 C 368.140 195.300, 368.149 195.315, 375.128 194.813 L 379.485 194.500 380.624 188 C 381.251 184.425, 382.070 179.363, 382.443 176.750 C 383.103 172.136, 383.221 172, 386.561 172 C 389.457 172, 390.002 171.644, 390.014 169.750 C 390.021 168.512, 390.299 166.488, 390.630 165.250 C 391.165 163.255, 390.865 163, 387.988 163 L 384.742 163 385.406 158 L 386.069 153 380.553 153 C 375.475 153, 374.997 153.198, 374.519 155.500 M 191.572 159.750 C 187.427 165.461, 181 178.199, 181 180.703 C 181 182.912, 189.244 197.670, 192.973 202.137 L 195.700 205.403 203.600 202.099 C 207.945 200.282, 212.073 198.328, 212.773 197.756 C 213.734 196.972, 213.979 192.521, 213.773 179.608 L 213.500 162.500 206 158.814 C 201.875 156.786, 197.717 155.099, 196.760 155.064 C 195.789 155.028, 193.494 157.101, 191.572 159.750 M 231.071 163.697 C 221.500 168.730, 220.843 179.712, 230 181.603 C 233.657 182.358, 235.500 183.533, 235.500 185.109 C 235.500 187.113, 229.699 187.413, 226.175 185.591 C 223.244 184.075, 223.205 184.092, 220.614 188.007 L 218.004 191.951 221.252 193.683 C 225.895 196.160, 235.525 196.063, 239.895 193.495 C 244.655 190.699, 247.200 186.902, 247.200 182.601 C 247.200 177.890, 245.785 176.290, 240.175 174.654 C 237.663 173.921, 235.443 172.830, 235.243 172.229 C 234.610 170.331, 238.489 168.993, 241.840 169.954 C 244.690 170.772, 245.104 170.567, 247.081 167.368 C 248.262 165.458, 248.928 163.594, 248.560 163.227 C 248.193 162.860, 244.879 162.410, 241.196 162.227 C 236.185 161.978, 233.637 162.348, 231.071 163.697 M 270.118 164.069 C 267.430 165.708, 266.859 165.810, 267.336 164.566 C 267.840 163.253, 266.975 163, 261.969 163 C 258.686 163, 256 163.441, 256 163.981 C 256 164.520, 254.425 174.942, 252.500 187.141 C 250.575 199.340, 249 209.699, 249 210.160 C 249 210.622, 251.439 211, 254.421 211 C 260.530 211, 259.855 212.069, 262.050 198.912 L 263.149 192.325 267.049 194.254 C 278.302 199.822, 291.935 188.287, 290.766 174.189 C 290.369 169.398, 289.828 168.230, 286.669 165.335 C 283.606 162.529, 282.274 162.001, 278.265 162.004 C 275.218 162.006, 272.281 162.751, 270.118 164.069 M 305.314 164.434 C 293.010 170.163, 290.173 186.117, 300.271 192.798 C 303.715 195.076, 305.387 195.488, 310.928 195.425 C 324.509 195.270, 334.277 185.561, 332.698 173.785 C 331.299 163.351, 317.650 158.691, 305.314 164.434 M 358.500 162.733 C 357.400 163.008, 355.188 164.165, 353.585 165.302 L 350.670 167.371 351.241 165.186 C 351.780 163.124, 351.484 163, 346.028 163 L 340.244 163 337.998 177.750 C 336.763 185.863, 335.696 192.950, 335.626 193.500 C 335.556 194.060, 337.909 194.500, 340.979 194.500 L 346.458 194.500 348.096 185.563 C 349.465 178.093, 350.196 176.229, 352.547 174.206 C 354.772 172.292, 356.138 171.889, 359.068 172.282 C 362.674 172.766, 362.790 172.682, 363.376 169.140 C 364.590 161.801, 364.211 161.303, 358.500 162.733 M 400.018 164.075 C 395.656 166.803, 394.229 168.663, 393.440 172.645 C 392.589 176.939, 394.275 179.611, 398.742 181.052 C 405.162 183.122, 406.291 183.944, 404.942 185.570 C 403.435 187.386, 399.280 187.395, 395.820 185.589 C 393.236 184.241, 393.048 184.328, 390.613 188.009 C 387.685 192.432, 388.137 193.173, 394.863 194.971 C 405.838 197.906, 416.985 191.596, 416.996 182.441 C 417.001 178.165, 415.191 176.140, 409.988 174.606 C 407.519 173.878, 405.366 172.602, 405.202 171.770 C 404.814 169.806, 408.494 168.857, 411.731 170.088 C 414.328 171.075, 415.388 170.339, 418.098 165.664 C 419.637 163.009, 418.690 162.569, 410.683 162.214 C 404.685 161.948, 402.925 162.255, 400.018 164.075 M 271.270 171.772 C 265.619 172.688, 262.960 181.617, 267.459 184.565 C 272.574 187.917, 279 183.927, 279 177.400 C 279 173.124, 276.074 170.994, 271.270 171.772 M 310.898 172.833 C 304.874 175.895, 304.712 184.137, 310.647 185.626 C 313.963 186.458, 317.890 184.451, 319.879 180.906 C 323.319 174.777, 317.450 169.502, 310.898 172.833 M 182 196.074 C 182 198.750, 187.167 212.114, 190.477 218 C 194.379 224.937, 197.915 229.285, 196.577 225.500 C 196.188 224.400, 195.023 220.446, 193.989 216.714 C 192.930 212.895, 190.040 206.664, 187.379 202.464 C 182.555 194.848, 182 194.189, 182 196.074 M 207 205.849 C 200.398 208.798, 198.427 210.146, 198.172 211.887 C 197.732 214.898, 201.511 227.088, 205.072 234.143 C 207.519 238.991, 209.118 240.619, 215.621 244.888 C 220.384 248.015, 224.891 250.161, 227.523 250.556 C 235.804 251.797, 254 247.543, 254 244.365 C 254 242.547, 250.190 227.309, 248.887 223.915 C 248.221 222.180, 245.363 219.925, 240.197 217.057 C 235.964 214.706, 228.830 210.357, 224.345 207.392 C 219.860 204.426, 216.035 202.012, 215.845 202.026 C 215.655 202.040, 211.675 203.760, 207 205.849 M 278.183 207.521 C 274.244 209.973, 267.191 214.049, 262.510 216.580 C 257.686 219.188, 254 221.828, 254 222.674 C 254 224.671, 257.798 239.914, 259.002 242.750 C 259.910 244.889, 260.488 244.998, 270.729 244.956 C 285.970 244.895, 289.806 243.982, 293.688 239.495 C 297.431 235.169, 305.001 221.014, 304.998 218.347 C 304.995 216.249, 296.823 209.310, 289.945 205.567 L 285.346 203.064 278.183 207.521 M 282 249.114 C 278.975 249.589, 272 249.931, 266.500 249.874 C 258.603 249.791, 255.296 250.214, 250.775 251.885 C 247.626 253.048, 243.689 254, 242.025 254 C 236.268 254, 239.031 255.762, 246.541 256.878 C 256.698 258.389, 262.241 258.292, 272.052 256.431 C 281.355 254.666, 293.278 250.259, 292.436 248.896 C 291.797 247.863, 289.676 247.908, 282 249.114" stroke="none" fill="#af2931" fill-rule="evenodd"/><path d="M 0 180.002 L 0 360.003 300.250 359.752 L 600.500 359.500 600.753 179.750 L 601.005 0 300.503 0 L 0 0 0 180.002 M 0.489 180.500 C 0.489 279.500, 0.607 320.148, 0.750 270.829 C 0.893 221.510, 0.893 140.510, 0.750 90.829 C 0.607 41.148, 0.489 81.500, 0.489 180.500 M 244.750 103.184 C 237.581 104.299, 235.633 106, 241.525 106 C 243.464 106, 247.626 106.953, 250.775 108.118 C 255.277 109.783, 258.529 110.204, 266 110.089 C 271.225 110.008, 278.875 110.379, 283 110.913 C 292.208 112.105, 294.208 110.875, 287.639 108.060 C 275.899 103.027, 258.487 101.048, 244.750 103.184 M 223.115 110.497 C 221.254 111.333, 216.950 114.001, 213.551 116.426 C 208.303 120.172, 206.898 121.865, 204.223 127.668 C 200.575 135.584, 197.382 146.947, 198.204 149.089 C 198.515 149.901, 202.687 152.266, 207.473 154.345 L 216.176 158.125 224.338 152.672 C 228.827 149.672, 235.980 145.286, 240.234 142.923 C 246.305 139.552, 248.176 137.970, 248.938 135.564 C 250.336 131.149, 254 116.354, 254 115.124 C 254 113.510, 242.330 110.286, 233.995 109.597 C 228.366 109.132, 225.657 109.356, 223.115 110.497 M 259.231 116.625 C 258.696 117.656, 257.195 122.956, 255.895 128.402 C 253.841 137.011, 253.727 138.417, 255.017 139.178 C 255.832 139.659, 261.450 142.883, 267.500 146.342 C 273.550 149.801, 280.089 153.600, 282.030 154.784 L 285.560 156.938 292.030 153.018 C 295.589 150.861, 300.199 147.512, 302.276 145.575 L 306.052 142.054 302.488 134.976 C 298.112 126.287, 292.495 118.339, 289.639 116.795 C 288.459 116.158, 281.380 115.440, 273.852 115.195 C 261.267 114.785, 260.128 114.896, 259.231 116.625 M 192.528 138.389 C 188.403 144.838, 183.473 156.664, 182.478 162.500 C 181.824 166.338, 182.004 166.175, 186.926 158.500 C 189.747 154.100, 192.515 148.700, 193.077 146.500 C 193.639 144.300, 194.751 140.511, 195.547 138.080 C 196.343 135.650, 196.796 133.463, 196.555 133.221 C 196.313 132.979, 194.501 135.305, 192.528 138.389 M 374.519 155.500 C 374.234 156.875, 373.780 159.071, 373.511 160.381 C 373.242 161.690, 372.117 162.998, 371.011 163.287 C 369.670 163.638, 369 164.649, 369 166.325 C 369 167.706, 368.727 169.548, 368.393 170.418 C 367.959 171.548, 368.380 172, 369.868 172 C 371.599 172, 371.862 172.464, 371.430 174.750 C 371.144 176.262, 370.326 181.254, 369.612 185.842 C 368.140 195.300, 368.149 195.315, 375.128 194.813 L 379.485 194.500 380.624 188 C 381.251 184.425, 382.070 179.363, 382.443 176.750 C 383.103 172.136, 383.221 172, 386.561 172 C 389.457 172, 390.002 171.644, 390.014 169.750 C 390.021 168.512, 390.299 166.488, 390.630 165.250 C 391.165 163.255, 390.865 163, 387.988 163 L 384.742 163 385.406 158 L 386.069 153 380.553 153 C 375.475 153, 374.997 153.198, 374.519 155.500 M 191.572 159.750 C 187.427 165.461, 181 178.199, 181 180.703 C 181 182.912, 189.244 197.670, 192.973 202.137 L 195.700 205.403 203.600 202.099 C 207.945 200.282, 212.073 198.328, 212.773 197.756 C 213.734 196.972, 213.979 192.521, 213.773 179.608 L 213.500 162.500 206 158.814 C 201.875 156.786, 197.717 155.099, 196.760 155.064 C 195.789 155.028, 193.494 157.101, 191.572 159.750 M 231.071 163.697 C 221.500 168.730, 220.843 179.712, 230 181.603 C 233.657 182.358, 235.500 183.533, 235.500 185.109 C 235.500 187.113, 229.699 187.413, 226.175 185.591 C 223.244 184.075, 223.205 184.092, 220.614 188.007 L 218.004 191.951 221.252 193.683 C 225.895 196.160, 235.525 196.063, 239.895 193.495 C 244.655 190.699, 247.200 186.902, 247.200 182.601 C 247.200 177.890, 245.785 176.290, 240.175 174.654 C 237.663 173.921, 235.443 172.830, 235.243 172.229 C 234.610 170.331, 238.489 168.993, 241.840 169.954 C 244.690 170.772, 245.104 170.567, 247.081 167.368 C 248.262 165.458, 248.928 163.594, 248.560 163.227 C 248.193 162.860, 244.879 162.410, 241.196 162.227 C 236.185 161.978, 233.637 162.348, 231.071 163.697 M 270.118 164.069 C 267.430 165.708, 266.859 165.810, 267.336 164.566 C 267.840 163.253, 266.975 163, 261.969 163 C 258.686 163, 256 163.441, 256 163.981 C 256 164.520, 254.425 174.942, 252.500 187.141 C 250.575 199.340, 249 209.699, 249 210.160 C 249 210.622, 251.439 211, 254.421 211 C 260.530 211, 259.855 212.069, 262.050 198.912 L 263.149 192.325 267.049 194.254 C 278.302 199.822, 291.935 188.287, 290.766 174.189 C 290.369 169.398, 289.828 168.230, 286.669 165.335 C 283.606 162.529, 282.274 162.001, 278.265 162.004 C 275.218 162.006, 272.281 162.751, 270.118 164.069 M 305.314 164.434 C 293.010 170.163, 290.173 186.117, 300.271 192.798 C 303.715 195.076, 305.387 195.488, 310.928 195.425 C 324.509 195.270, 334.277 185.561, 332.698 173.785 C 331.299 163.351, 317.650 158.691, 305.314 164.434 M 358.500 162.733 C 357.400 163.008, 355.188 164.165, 353.585 165.302 L 350.670 167.371 351.241 165.186 C 351.780 163.124, 351.484 163, 346.028 163 L 340.244 163 337.998 177.750 C 336.763 185.863, 335.696 192.950, 335.626 193.500 C 335.556 194.060, 337.909 194.500, 340.979 194.500 L 346.458 194.500 348.096 185.563 C 349.465 178.093, 350.196 176.229, 352.547 174.206 C 354.772 172.292, 356.138 171.889, 359.068 172.282 C 362.674 172.766, 362.790 172.682, 363.376 169.140 C 364.590 161.801, 364.211 161.303, 358.500 162.733 M 400.018 164.075 C 395.656 166.803, 394.229 168.663, 393.440 172.645 C 392.589 176.939, 394.275 179.611, 398.742 181.052 C 405.162 183.122, 406.291 183.944, 404.942 185.570 C 403.435 187.386, 399.280 187.395, 395.820 185.589 C 393.236 184.241, 393.048 184.328, 390.613 188.009 C 387.685 192.432, 388.137 193.173, 394.863 194.971 C 405.838 197.906, 416.985 191.596, 416.996 182.441 C 417.001 178.165, 415.191 176.140, 409.988 174.606 C 407.519 173.878, 405.366 172.602, 405.202 171.770 C 404.814 169.806, 408.494 168.857, 411.731 170.088 C 414.328 171.075, 415.388 170.339, 418.098 165.664 C 419.637 163.009, 418.690 162.569, 410.683 162.214 C 404.685 161.948, 402.925 162.255, 400.018 164.075 M 271.270 171.772 C 265.619 172.688, 262.960 181.617, 267.459 184.565 C 272.574 187.917, 279 183.927, 279 177.400 C 279 173.124, 276.074 170.994, 271.270 171.772 M 310.898 172.833 C 304.874 175.895, 304.712 184.137, 310.647 185.626 C 313.963 186.458, 317.890 184.451, 319.879 180.906 C 323.319 174.777, 317.450 169.502, 310.898 172.833 M 182 196.074 C 182 198.750, 187.167 212.114, 190.477 218 C 194.379 224.937, 197.915 229.285, 196.577 225.500 C 196.188 224.400, 195.023 220.446, 193.989 216.714 C 192.930 212.895, 190.040 206.664, 187.379 202.464 C 182.555 194.848, 182 194.189, 182 196.074 M 207 205.849 C 200.398 208.798, 198.427 210.146, 198.172 211.887 C 197.732 214.898, 201.511 227.088, 205.072 234.143 C 207.519 238.991, 209.118 240.619, 215.621 244.888 C 220.384 248.015, 224.891 250.161, 227.523 250.556 C 235.804 251.797, 254 247.543, 254 244.365 C 254 242.547, 250.190 227.309, 248.887 223.915 C 248.221 222.180, 245.363 219.925, 240.197 217.057 C 235.964 214.706, 228.830 210.357, 224.345 207.392 C 219.860 204.426, 216.035 202.012, 215.845 202.026 C 215.655 202.040, 211.675 203.760, 207 205.849 M 278.183 207.521 C 274.244 209.973, 267.191 214.049, 262.510 216.580 C 257.686 219.188, 254 221.828, 254 222.674 C 254 224.671, 257.798 239.914, 259.002 242.750 C 259.910 244.889, 260.488 244.998, 270.729 244.956 C 285.970 244.895, 289.806 243.982, 293.688 239.495 C 297.431 235.169, 305.001 221.014, 304.998 218.347 C 304.995 216.249, 296.823 209.310, 289.945 205.567 L 285.346 203.064 278.183 207.521 M 282 249.114 C 278.975 249.589, 272 249.931, 266.500 249.874 C 258.603 249.791, 255.296 250.214, 250.775 251.885 C 247.626 253.048, 243.689 254, 242.025 254 C 236.268 254, 239.031 255.762, 246.541 256.878 C 256.698 258.389, 262.241 258.292, 272.052 256.431 C 281.355 254.666, 293.278 250.259, 292.436 248.896 C 291.797 247.863, 289.676 247.908, 282 249.114" stroke="none" fill="#fbfbfb" fill-rule="evenodd"/></svg>